<svg xmlns="http://www.w3.org/2000/svg" viewBox="0 0 521.79 173.37">
    <defs>
        <style>.cls-1{fill:#0f4d92;}.cls-2{fill:#d21b24;}.cls-3{fill:#fff;}</style>
    </defs>
    <title>eLawPro</title>
    <g id="Layer_2" data-name="Layer 2">
        <g id="Layer_1-2" data-name="Layer 1">
            <path class="cls-1" d="M177,131.33q7.72,0,11.87,3.44a16.23,16.23,0,0,1,5.47,7.74,27.68,27.68,0,0,1,1.32,8.09H169.85q.33,3.33.7,5.29a30,30,0,0,0,1,3.79,13.56,13.56,0,0,0,2.4,4.29,10,10,0,0,0,7.65,3.54,11.89,11.89,0,0,0,6.76-2.11,22.47,22.47,0,0,0,5.61-5.5l2.5,2.43a41.09,41.09,0,0,1-5.63,5.95,20.68,20.68,0,0,1-6.69,3.75,28.1,28.1,0,0,1-9.27,1.34A25.17,25.17,0,0,1,166,171.8a20.84,20.84,0,0,1-7-4.25,18.31,18.31,0,0,1-4.43-6.31,19.67,19.67,0,0,1-1.52-7.78,23.37,23.37,0,0,1,2.79-11.53,19.18,19.18,0,0,1,8.22-7.81A28,28,0,0,1,177,131.33Zm-7.19,16.13H180.4c-.07-.93-.14-1.86-.21-2.77S180,142.86,180,142q-1-7-5.11-7c-2.24.32-3.73,2.7-4.47,7.16-.07.45-.16,1.26-.27,2.44S169.93,146.7,169.85,147.46Z"/>
            <path class="cls-1" d="M248.5,172.05H198.77V168.4a4.54,4.54,0,0,0,1.25.18l.51,0q5.21,0,5.21-7.26v-31.1q0-7.32-5.21-7.33a8.28,8.28,0,0,0-1.76.14v-3.75a129,129,0,0,0,15.8.82,133.77,133.77,0,0,0,15.62-.82V123c-.8-.09-1.38-.14-1.71-.14q-5.4,0-5.4,7.33V162.4a8.1,8.1,0,0,0,.56,3.38,3.25,3.25,0,0,0,2,1.66,13.72,13.72,0,0,0,4.23.5h7.48a11.68,11.68,0,0,0,4.86-.91,11.82,11.82,0,0,0,3.93-3.18,57.86,57.86,0,0,0,4.68-6.74h4Z"/>
            <path class="cls-1" d="M263.94,151.57a15.64,15.64,0,0,1,2.25-.84l7.28-2.52q5-1.76,6.81-2.36v-5.72a7.57,7.57,0,0,0-.81-4,3.18,3.18,0,0,0-2.87-1.22,4.08,4.08,0,0,0-3.22,1.33,4.54,4.54,0,0,0-1.18,3.14,5.87,5.87,0,0,0,.89,3L258.9,148.1a11.56,11.56,0,0,1-.53-3.5,9.7,9.7,0,0,1,3-7.12,18.66,18.66,0,0,1,8.12-4.48,40.54,40.54,0,0,1,11.19-1.59,23.08,23.08,0,0,1,9,1.51,10.91,10.91,0,0,1,5.25,4.35,12.73,12.73,0,0,1,1.7,6.68v18.81c0,2.78.57,4.18,1.72,4.18a7.66,7.66,0,0,0,3.21-1.32l2,2a14.65,14.65,0,0,1-5.54,3.81,17.67,17.67,0,0,1-7.12,1.7,15.37,15.37,0,0,1-4.18-.61,11.62,11.62,0,0,1-3.89-1.88,5.86,5.86,0,0,1-2.26-3,16.72,16.72,0,0,1-4.11,3.51c-1.83,1.19-4.59,1.78-8.25,1.78q-12.84,0-12.84-10.11a20.93,20.93,0,0,1,.7-4.74,7.93,7.93,0,0,1,2.45-3.59A15.64,15.64,0,0,1,263.94,151.57Zm16.34-2.86c0-.1,0-.14-.07-.14a8.32,8.32,0,0,0-1.77.42,10.21,10.21,0,0,0-2.83,1.6,9.89,9.89,0,0,0-2.82,3.82,16.33,16.33,0,0,0-1.23,6.88c0,2,.41,3.44,1.25,4.33a4.78,4.78,0,0,0,3.64,1.32c1.86,0,3.14-.54,3.83-1.61Z"/>
            <path class="cls-1" d="M307.63,143.2a21.62,21.62,0,0,0-3-5.45c-.81-.89-2.25-1.39-4.33-1.48v-3.83a133.07,133.07,0,0,0,14.12.82,133.77,133.77,0,0,0,14.2-.82v3.72q-4.33,0-4.33,2.57a4,4,0,0,0,.29,1.47,15.56,15.56,0,0,0,.71,1.54l.54,1,4.68,11.48,5.58-14.19a2,2,0,0,0,.21-.9c0-.93-.58-1.64-1.73-2.14a10.78,10.78,0,0,0-4.27-.75v-3.83q3.36.44,6.72.63c2.24.13,4.83.19,7.79.19a110.05,110.05,0,0,0,13.76-.82v3.9a12.78,12.78,0,0,0-3.63.34,1.41,1.41,0,0,0-1,1.48,15.5,15.5,0,0,0,1.4,4.47l4.75,11.48L364.47,143a8.18,8.18,0,0,0,.71-3.15q0-3.57-4.9-3.57v-3.83a60.28,60.28,0,0,0,8.05.58,59.25,59.25,0,0,0,8-.58v3.83a6.76,6.76,0,0,0-3.67.84,5.5,5.5,0,0,0-1.95,2.07c-.42.82-1.09,2.31-2,4.45l-11.54,28.42h-7.33l-11.33-26.49-10.94,26.49H320.1Z"/>
            <path class="cls-2" d="M391.22,171.23q-3.5,0-17,.82v-3.72a9.52,9.52,0,0,0,5.15-1.14c1.16-.76,1.75-2.24,1.75-4.43V129.08q0-3.29-1.58-4.54a5.82,5.82,0,0,0-3.71-1.25,4.93,4.93,0,0,0-1.61.22v-3.79q6.72-.57,13.76-.9c5.62-.28,9.43-.43,11.43-.43h1.43l1,.08a59.4,59.4,0,0,1,11.76,1.23,22.86,22.86,0,0,1,7.84,3.13,12.79,12.79,0,0,1,4.43,5,15.76,15.76,0,0,1,1.5,6.7,16.21,16.21,0,0,1-2.39,8.71,15.82,15.82,0,0,1-7.07,6,26.47,26.47,0,0,1-11.11,2.15,48.3,48.3,0,0,1-8.32-.86V162.9a4.61,4.61,0,0,0,2.37,4.47,11.37,11.37,0,0,0,5.37,1.25,12.13,12.13,0,0,0,2.1-.14v3.57Q399,171.23,391.22,171.23Zm7.27-24.74a11.22,11.22,0,0,0,1.45.47,10,10,0,0,0,2.58.28,6,6,0,0,0,5.31-2.68c1.21-1.79,1.82-4.5,1.82-8.15q0-14.37-7.8-14.37a14,14,0,0,0-3.36.54Z"/>
            <path class="cls-2" d="M433.78,145.31v-1.53a5,5,0,0,0-.38-2.28,3.14,3.14,0,0,0-1.59-1.21q-1.21-.53-4.9-1.63v-2.39a77,77,0,0,0,21.38-4.94l2.11.9v10.83l4.54-7.4a14.51,14.51,0,0,1,2.81-3.42,4.83,4.83,0,0,1,3.13-1.05,12.82,12.82,0,0,1,4.32,1L472,135l-5.25,11.33-6.37-2.65a11,11,0,0,0-3.82-1,4.69,4.69,0,0,0-3.93,2.33l-2.22,3v13.12q0,4.11,2.24,5.75a8.54,8.54,0,0,0,5.23,1.65,9.3,9.3,0,0,0,2.26-.22v3.72q-9.22-.83-16.91-.82-7.37,0-16.23.82v-3.72a7.32,7.32,0,0,0,1.75.29,4.21,4.21,0,0,0,3.65-2.11,10.89,10.89,0,0,0,1.39-6Z"/>
            <path class="cls-2" d="M496.16,173.3a34.21,34.21,0,0,1-13.46-2.39,19,19,0,0,1-8.62-7,19.56,19.56,0,0,1-3.12-10.7,23.73,23.73,0,0,1,1.23-7.83,18.06,18.06,0,0,1,3.65-6.22,20.41,20.41,0,0,1,6-4.52,30.65,30.65,0,0,1,8.12-2.74,39.42,39.42,0,0,1,7.9-.82,31,31,0,0,1,11.92,2.25,19.2,19.2,0,0,1,8.74,7.1,21.2,21.2,0,0,1,3.29,12.17,18.61,18.61,0,0,1-3.08,10.44,21,21,0,0,1-8.9,7.43A31.84,31.84,0,0,1,496.16,173.3Zm-2.79-38.82a4.71,4.71,0,0,0-4.45,2.59,14.24,14.24,0,0,0-1.41,6.81A39.16,39.16,0,0,0,489,154a44.23,44.23,0,0,0,2.78,7.21,22.12,22.12,0,0,0,3.84,5.75,6,6,0,0,0,4.29,2.2,5,5,0,0,0,2.28-.64,6.43,6.43,0,0,0,2.2-3.72,23.57,23.57,0,0,0,.81-6.54,28.6,28.6,0,0,0-1.68-10Q498.76,134.48,493.37,134.48Z"/>
            <path class="cls-1" d="M93,171.23h0l-.09-.06Z"/>
            <path class="cls-1" d="M91.92,170.52l-.24-.18Z"/>
            <path class="cls-1" d="M100.18,172.42h0Z"/>
            <path class="cls-2" d="M90.63,169.43a11.22,11.22,0,0,0,1.05.91,10.12,10.12,0,0,1-1.06-.92Z"/>
            <path class="cls-2" d="M92.93,171.17c-.35-.2-.68-.42-1-.65C92.25,170.75,92.58,171,92.93,171.17Z"/>
            <polygon class="cls-1" points="43.73 134.37 58.71 149.35 58.71 149.35 43.73 134.37 43.73 134.37"/>
            <polygon class="cls-1" points="20.87 111.51 35.75 126.39 35.75 126.39 20.87 111.51 20.87 111.51"/>
            <polygon class="cls-1" points="67.05 157.69 79.94 170.58 79.94 170.58 67.05 157.69 67.05 157.69"/>
            <polygon class="cls-1" points="4.25 94.89 7.49 98.13 7.49 98.13 4.25 94.89 4.25 94.89"/>
            <path class="cls-3" d="M88.37,165q0-23.76,0-47.52c0-4.54,1.72-6.78,6.06-8.15a1.82,1.82,0,0,0,1-1.28,55,55,0,0,0,0-6.55,2.65,2.65,0,0,0-1.25-1.81A88.27,88.27,0,0,0,84,94.55a84.66,84.66,0,0,0-12.68-3.66,102.31,102.31,0,0,0-35.92-1.37,109.8,109.8,0,0,0-15.28,3.13c-4.12,1.23-8,3.32-11.9,5.19a5.35,5.35,0,0,1-.75.29l13.38,13.38c-.13-3.38-.81-6.89,1.92-9.71a7,7,0,0,1,7.81-2.06c3.18,1.12,5.09,3.48,5.13,6.72.08,6.52,0,13,0,19.94l8,8a2.29,2.29,0,0,1,0-.25c0-9.7-.07-19.4,0-29.1a7.58,7.58,0,0,1,6.63-7.57c3.29-.53,6.93,1.84,8.12,5.35a6,6,0,0,1,.25,1.89q0,22.22,0,44.44a1.7,1.7,0,0,1,0,.22l8.34,8.34a2.4,2.4,0,0,1,0-.46q-.07-24.31,0-48.64a7.34,7.34,0,0,1,4.63-7.33,7.58,7.58,0,0,1,8.6,2,7.43,7.43,0,0,1,1.86,5.14q0,31.9,0,63.8a9.54,9.54,0,0,0,6.31,1.06Z"/>
            <path class="cls-3" d="M6.45,93c5-3.57,10.72-5.68,16.64-7.27a101,101,0,0,1,28-3.11,100.31,100.31,0,0,1,28.34,4.28c7,2.2,13.83,5.05,19.31,10.28.65.62,1.34,1.2,2,1.81,2.87-2.44,3.83-7.78,2.54-11.25-1.77-4.78-5.33-8-9.45-10.57-7.28-4.61-15.37-7-23.75-8.77A112.53,112.53,0,0,0,39.86,66.7c-10.29.66-20.34,2.73-29.58,7.62A33.24,33.24,0,0,0,5.14,77.6L2.79,79.94a9.56,9.56,0,0,0,0,13.5l1.46,1.45C4.46,94.4,5.18,93.88,6.45,93Z"/>
            <path class="cls-3" d="M15.05,67.69l.09,0C27.23,62.9,39.89,61.49,52.77,62a97.84,97.84,0,0,1,30.79,5.7C89.86,70,95.79,73,100.28,78.24a44.09,44.09,0,0,1,2.77,4.06,9,9,0,0,0,.53-6.18,15.72,15.72,0,0,0-4.78-7.74c-1-1-4.91-4.18-6.11-4.65-.42-.17-4.62-2.42-6.11-3.09A80.37,80.37,0,0,0,66.23,55,110.82,110.82,0,0,0,44.4,53.66,103.48,103.48,0,0,0,27,55.72"/>
            <path class="cls-1" d="M58.71,104.69a6,6,0,0,0-.25-1.89c-1.19-3.51-4.83-5.88-8.12-5.35A7.58,7.58,0,0,0,43.71,105c-.07,9.7,0,19.4,0,29.1a2.29,2.29,0,0,0,0,.25l15,15a1.7,1.7,0,0,0,0-.22Q58.72,126.9,58.71,104.69Z"/>
            <path class="cls-1" d="M35.73,106.46c0-3.24-1.95-5.6-5.13-6.72a7,7,0,0,0-7.81,2.06c-2.73,2.82-2.05,6.33-1.92,9.71L35.75,126.4C35.76,119.5,35.81,113,35.73,106.46Z"/>
            <path class="cls-1" d="M80.19,103.23a7.58,7.58,0,0,0-8.6-2A7.34,7.34,0,0,0,67,108.59q0,24.33,0,48.64a2.4,2.4,0,0,0,0,.46l12.89,12.89a10,10,0,0,0,.93.81l.22.16a8.25,8.25,0,0,0,.88.57l.09,0q0-31.9,0-63.8A7.43,7.43,0,0,0,80.19,103.23Z"/>
            <path class="cls-1" d="M170.58,79.94,93.44,2.8a9.54,9.54,0,0,0-13.5,0L27,55.72A103.48,103.48,0,0,1,44.4,53.66,110.82,110.82,0,0,1,66.23,55a80.37,80.37,0,0,1,20.35,5.66c1.49.67,5.69,2.92,6.11,3.09,1.2.47,5.11,3.67,6.11,4.65a15.72,15.72,0,0,1,4.78,7.74,9,9,0,0,1-.53,6.18,44.09,44.09,0,0,0-2.77-4.06C95.79,73,89.86,70,83.56,67.65A97.84,97.84,0,0,0,52.77,62c-12.88-.46-25.54.95-37.63,5.7l-.09,0L5.14,77.6a33.24,33.24,0,0,1,5.14-3.28c9.24-4.89,19.29-7,29.58-7.62a112.53,112.53,0,0,1,30.25,1.68c8.38,1.74,16.47,4.16,23.75,8.77,4.12,2.62,7.68,5.79,9.45,10.57,1.29,3.47.33,8.81-2.54,11.25-.68-.61-1.37-1.19-2-1.81-5.48-5.23-12.26-8.08-19.31-10.28A100.31,100.31,0,0,0,51.1,82.6a101,101,0,0,0-28,3.11C17.17,87.3,11.49,89.41,6.45,93c-1.27.9-2,1.42-2.2,1.91l3.24,3.24a5.35,5.35,0,0,0,.75-.29c3.91-1.87,7.78-4,11.9-5.19a109.8,109.8,0,0,1,15.28-3.13,102.31,102.31,0,0,1,35.92,1.37A84.66,84.66,0,0,1,84,94.55a88.27,88.27,0,0,1,10.21,5.09,2.65,2.65,0,0,1,1.25,1.81,55,55,0,0,1,0,6.55,1.82,1.82,0,0,1-1,1.28c-4.34,1.37-6,3.61-6.06,8.15q0,23.76,0,47.52v8.28h0l.47-.11.33-.08.44-.13.36-.12.4-.15.69-.32.28-.16.46-.27.29-.2.45-.33.24-.19c.22-.18.43-.37.64-.57v0l77.14-77.14A9.54,9.54,0,0,0,170.58,79.94Zm-46.75,9.9c-.16,0-1.6-.72-2.27-.93a3.23,3.23,0,0,0-2.14-.07,3.58,3.58,0,0,1-2.16-.39,18.84,18.84,0,0,0-2.23.37c-.35.05-.65,1-.94,1a1.53,1.53,0,0,1-1.62-1.6c0-.22.32-.22.74-.34a6.93,6.93,0,0,0,1.64-.65c.34-.24.68-.6.65-.87a18.45,18.45,0,0,1-.59-3.18c-.06-1.4.3-1.94.19-2.6a17.91,17.91,0,0,1-.7-3.32c-.24-2.27,1.16-5.68,1.44-5.61s.65,1.53,1,3.2a25.73,25.73,0,0,0,1.9,4.59,6.5,6.5,0,0,1,0,3.29,3.46,3.46,0,0,0,.35,2.13,4.76,4.76,0,0,1,2.3-.61c1.16.07,1.37.67,1.37.67s.91.17.85.25-.47.08-.72.12a11.94,11.94,0,0,0-1.15.77,3,3,0,0,0-.86,1,3,3,0,0,1,1.42.91c.32.36.46.41.94.86C123.67,89.12,124,89.82,123.83,89.84Zm6.89-37.22c-.42.68-9.26.93-10.3.56s-4.67,0-6.17-.2-5.11-.72-5.11-.72.63.45.19.41-2.16-.41-2.83.09-1.75.08-2.09.83,1.75,1.23,1.38,1.53a7.72,7.72,0,0,1-5.53.2C97.81,54.43,96.8,50.46,97,50s2.21.42,3,.6a1.5,1.5,0,0,0,1.65-.81c.15-.44-1.46-1.31-4.81-2.9S92,41.54,91.65,40.44a34,34,0,0,0-2.19-4.63c-.86-1.71-.12-3.11.06-2.59s1.7,2.46,2.16,3.62,5.52,5.77,8.46,7.55,3.07,3.53,3.07,3.53a10.59,10.59,0,0,1,2.7.63A6.35,6.35,0,0,1,107.37,50a17.41,17.41,0,0,0,2,0c1.3,0,4.61-.61,5.72-.4a30.35,30.35,0,0,1,5.24,1.86c1.68.76,6.21,1.1,7.62,1.06S131,52.18,130.72,52.62Z"/>
            <path class="cls-3" d="M128,52.49c-1.41,0-5.94-.3-7.62-1.06a30.35,30.35,0,0,0-5.24-1.86c-1.11-.21-4.42.35-5.72.4a17.41,17.41,0,0,1-2,0,6.35,6.35,0,0,0-1.46-1.42,10.59,10.59,0,0,0-2.7-.63s-.13-1.76-3.07-3.53-8-6.38-8.46-7.55-2-3.1-2.16-3.62-.92.88-.06,2.59a34,34,0,0,1,2.19,4.63c.3,1.1,1.82,4.89,5.18,6.47s5,2.46,4.81,2.9a1.5,1.5,0,0,1-1.65.81c-.77-.18-2.78-1-3-.6s.8,4.41,3.25,5.3a7.72,7.72,0,0,0,5.53-.2c.37-.3-1.73-.77-1.38-1.53s1.43-.32,2.09-.83,2.38-.13,2.83-.09-.19-.41-.19-.41,3.61.48,5.11.72,5.14-.17,6.17.2,9.88.12,10.3-.56C131,52.18,129.38,52.45,128,52.49Z"/>
            <path class="cls-3" d="M122.4,87.94A3,3,0,0,0,121,87a3,3,0,0,1,.86-1,11.94,11.94,0,0,1,1.15-.77c.25,0,.66,0,.72-.12s-.85-.25-.85-.25-.21-.6-1.37-.67a4.76,4.76,0,0,0-2.3.61,3.46,3.46,0,0,1-.35-2.13,6.5,6.5,0,0,0,0-3.29,25.73,25.73,0,0,1-1.9-4.59c-.4-1.67-.77-3.13-1-3.2s-1.68,3.34-1.44,5.61a17.91,17.91,0,0,0,.7,3.32c.11.66-.25,1.2-.19,2.6a18.45,18.45,0,0,0,.59,3.18c0,.27-.31.63-.65.87a6.93,6.93,0,0,1-1.64.65c-.42.12-.78.12-.74.34a1.53,1.53,0,0,0,1.62,1.6c.29,0,.59-.95.94-1a18.84,18.84,0,0,1,2.23-.37,3.58,3.58,0,0,0,2.16.39,3.23,3.23,0,0,1,2.14.07c.67.21,2.11,1,2.27.93s-.16-.72-.49-1C122.86,88.35,122.72,88.3,122.4,87.94Z"/>
        </g>
    </g>
</svg>